<svg xmlns="http://www.w3.org/2000/svg" width="103.388" height="61.459" viewBox="0 0 103.388 61.459">
  <path id="Icon_payment-bancontact-mister-cash" data-name="Icon payment-bancontact-mister-cash" d="M13.581,47.675H56.659l4.882-4.882h15.8l-13.5,14.935H13.581ZM50.156,37.227l-9.292,9.554H56.052L61.075,41.9H79.318l-4.675,5.38h25.772V37.227Zm51.581-20.568H12.731a7.2,7.2,0,0,0-7.191,7.209V70.908a7.2,7.2,0,0,0,7.191,7.209h89.007a7.2,7.2,0,0,0,7.191-7.209V23.867A7.2,7.2,0,0,0,101.737,16.658Zm5.433,54.279a5.674,5.674,0,0,1-5.675,5.675H12.973A5.674,5.674,0,0,1,7.3,70.937v-47.1a5.674,5.674,0,0,1,5.675-5.675h88.521a5.674,5.674,0,0,1,5.675,5.675v47.1ZM20.393,21.019a3.76,3.76,0,0,1,2.833,3.691,3.325,3.325,0,0,1-.927,2.234c-.076.083-.152.164-.247.266,1.631,1.155,2.287,2.654,1.5,4.54a3.559,3.559,0,0,1-3.229,2.2,3.7,3.7,0,0,0-.471-.059c-1.86,0-3.722,0-5.583,0-.389,0-.415-.024-.415-.41q0-6.2.005-12.406,3.048,0,6.1-.005a3.854,3.854,0,0,0,.437-.055Zm-3.009,2.537q-.008,1.227-.014,2.455c0,.009.013.018.019.028.458,0,.918,0,1.376-.013a.982.982,0,0,0,1-.827,1.3,1.3,0,0,0-.483-1.316,2.19,2.19,0,0,0-1.9-.326Zm-.019,7.789a14.291,14.291,0,0,0,1.7.022,1.175,1.175,0,0,0,1.107-1.192,1.274,1.274,0,0,0-.95-1.35,11.561,11.561,0,0,0-1.862-.027,1.127,1.127,0,0,0-.062.26q-.011,1.074-.009,2.146c0,.047.046.094.07.141Zm33.774-1.681a4.641,4.641,0,0,1,3.553-4.48A4.992,4.992,0,0,1,60.4,27.634a4.493,4.493,0,0,1-2.581,6.342,5.261,5.261,0,0,1-1.437.237,5.722,5.722,0,0,1-1.667-.1A4.6,4.6,0,0,1,51.139,29.663Zm3.16-.043a1.726,1.726,0,0,0,1.711,1.853,1.79,1.79,0,0,0,1.813-1.74A1.7,1.7,0,0,0,56.061,27.9,1.611,1.611,0,0,0,54.3,29.62Zm-21.628,4.41c-.827.005-1.653.017-2.48.006-.122,0-.242-.105-.435-.195a5.29,5.29,0,0,1-2.046.443,4.352,4.352,0,0,1-2.4-.473,2.176,2.176,0,0,1-1.1-2.207,3.323,3.323,0,0,1,2.831-3.151,16.7,16.7,0,0,1,1.867-.279c.1-.014.224.013.3-.035.15-.088.333-.195.388-.337.032-.083-.158-.251-.248-.381-.1-.058-.2-.164-.294-.165-.457-.008-.917,0-1.374.03a1.037,1.037,0,0,0-.323.138c-.524.115-1.05.218-1.568.351-.307.079-.6.209-.954.334.046-.289.081-.542.127-.792.081-.439.173-.876.247-1.315.035-.2.117-.346.329-.38.581-.095,1.161-.195,1.745-.277a8.729,8.729,0,0,1,1.287-.128,6.347,6.347,0,0,1,2.926.64,2.512,2.512,0,0,1,1.426,1.707.827.827,0,0,0-.061.219c0,1.9.01,3.8,0,5.694a1.792,1.792,0,0,1-.2.553Zm-2.844-3.174a2.845,2.845,0,0,0-.008-.48c-.013-.077-.114-.2-.174-.2a2.522,2.522,0,0,0-1.953.679.9.9,0,0,0-.156,1.05,1.108,1.108,0,0,0,1,.464,1.34,1.34,0,0,0,1.288-1.516Zm49.855,3.376a8.188,8.188,0,0,1-1.2-.4,2.027,2.027,0,0,1-1.163-1.814,2.937,2.937,0,0,1,1.268-2.836,5.668,5.668,0,0,1,1.583-.72,15.406,15.406,0,0,1,1.967-.291c.045-.006.092,0,.137-.008.233-.044.481-.11.494-.389.013-.262-.236-.347-.434-.351a11.926,11.926,0,0,0-1.914.049c-.831.124-1.645.36-2.494.553.082-.446.172-.936.263-1.426.031-.169.081-.337.095-.507a.5.5,0,0,1,.41-.506,9.254,9.254,0,0,1,5.123-.045,3.148,3.148,0,0,1,1.743,1.1,5.726,5.726,0,0,1,.449.915,1.02,1.02,0,0,0-.082.275q.006,2.829.027,5.658a.538.538,0,0,1-.278.539c-.776,0-1.55.018-2.326.005a1.362,1.362,0,0,1-.431-.181l-1.456.374c-.542-.024-1.084-.05-1.626-.068-.05,0-.1.046-.152.07Zm1.033-2.218a.914.914,0,0,0,1.223.282,1.3,1.3,0,0,0,.977-1.55,1.3,1.3,0,0,1,0-.274c.018-.218-.074-.347-.294-.3a6.215,6.215,0,0,0-1.311.346,1.054,1.054,0,0,0-.593,1.5ZM33.774,34.023a2.517,2.517,0,0,1-.06-.4q-.006-3.926,0-7.851c0-.435,0-.437.44-.437q1.189,0,2.376,0c.406,0,.406,0,.428.412,0,.045.013.09.027.19.137-.081.25-.146.362-.214a3.43,3.43,0,0,1,4.4.525,3.088,3.088,0,0,1,.827,2.133c.015,1.79.008,3.581.005,5.371a1.23,1.23,0,0,1-.058.262.545.545,0,0,0-.174-.072c-.705-.009-1.41-.017-2.115-.01a2.477,2.477,0,0,0-.464.093H39.7a1.859,1.859,0,0,1-.195-.553c-.017-1.337-.006-2.675-.013-4.011a3.243,3.243,0,0,0-.07-.466,1.268,1.268,0,0,0-.907-1.095,1.321,1.321,0,0,0-1.556.7c-.257.028-.206.224-.2.385s.045.342.045.512c0,1.183.006,2.366,0,3.548,0,.279-.037.558-.056.821-.147,0-.265,0-.381,0-.56.019-1.12.031-1.679.067-.306.022-.625-.1-.913.087ZM61.549,25.35c.93,0,1.859-.005,2.789-.013.211,0,.328.072.318.3,0,.079.009.159.017.3.2-.111.375-.207.548-.3a3.5,3.5,0,0,1,4.223.545A3,3,0,0,1,70.3,27.9a3.7,3.7,0,0,0-.059.471c0,1.688,0,3.375-.009,5.063a2.807,2.807,0,0,1-.131.592c-.884.005-1.766,0-2.649.019-.3.006-.3-.163-.3-.374q0-1.842,0-3.682c0-.321.006-.643-.006-.963a1.148,1.148,0,0,0-1.046-1.165,1.278,1.278,0,0,0-1.337.749c-.045.1-.074.216-.112.325a2.532,2.532,0,0,0-.06.4q-.006,2.347,0,4.7l-2.967,0a5.178,5.178,0,0,1-.061-.576q-.008-4.05-.005-8.1Zm9.241,1.657c0-.46,0-.918-.018-1.376-.008-.229.092-.291.307-.3.739-.021.739-.027.739-.786,0-.367-.014-.736.01-1.1a.452.452,0,0,1,.184-.324c.972-.517,1.954-1.017,2.933-1.52.018-.009.044,0,.1,0,.008.092.023.188.023.286,0,1.033.01,2.067,0,3.1,0,.269.078.369.353.356.389-.019.781,0,1.17,0,.158,0,.266.033.265.227-.005.688,0,1.375,0,2.128H75.16a1.976,1.976,0,0,0-.095.42c-.01.708-.005,1.416-.005,2.124,0,.388,0,.777.005,1.165,0,.069-.068.261.143.146.414.37.857.223,1.3.073a.319.319,0,0,1,.236.417,1.731,1.731,0,0,0,0,.58.955.955,0,0,1-.671,1.17,1.421,1.421,0,0,0-.317.277,3.235,3.235,0,0,1-2.437-.076,2.4,2.4,0,0,1-1.5-2.3c-.013-1.26-.007-2.519-.009-3.778-.206-.026-.412-.068-.62-.074s-.32-.045-.312-.289a2.546,2.546,0,0,0-.09-.538Zm28.333,4.6a1.186,1.186,0,0,0,1.174.023.328.328,0,0,1,.265.379c-.012.113.005.229,0,.342a2.75,2.75,0,0,1-.133,1.275,3.22,3.22,0,0,1-2.3.6,2.5,2.5,0,0,1-2.248-1.539,2.822,2.822,0,0,1-.191-1.036c-.023-1.111-.005-2.223-.011-3.334a2.245,2.245,0,0,0-.083-.423,5.687,5.687,0,0,0-.6-.061c-.238,0-.362-.076-.358-.334.008-.593-.009-1.187.011-1.78,0-.124.126-.243.193-.365.046-.005.091-.013.137-.014.711-.021.711-.021.711-.72,0-.378.006-.755,0-1.133a.4.4,0,0,1,.237-.412c.794-.407,1.584-.821,2.375-1.233.475.038.475.038.476.552,0,.844,0,1.688.005,2.531a2.243,2.243,0,0,0,.086.424h1.7q0,1.168,0,2.335l-1.555.006a1.824,1.824,0,0,0-.1.384c-.011.444-.005.89-.005,1.335,0,.65,0,1.3,0,1.951,0,.122-.076.351.21.25Zm-5.045-3.148a5.037,5.037,0,0,0-.63-.321,3.359,3.359,0,0,0-2.543-.1A1.816,1.816,0,0,0,89.76,30a1.162,1.162,0,0,0,.526.875,3.481,3.481,0,0,0,3.476.1c.092-.04.178-.093.294-.156a1.038,1.038,0,0,1,.036.182c0,.758,0,1.515,0,2.273a.368.368,0,0,1-.219.383,5.14,5.14,0,0,1-6.967-2.308,4.454,4.454,0,0,1,3.1-6.082,6.418,6.418,0,0,1,3.685.225.543.543,0,0,1,.407.615c-.024.676-.006,1.355-.008,2.031,0,.1-.01.2-.017.328ZM50.321,28.3a3.556,3.556,0,0,0-2.5-.385,1.888,1.888,0,0,0-1.533,1.457,1.336,1.336,0,0,0,.328,1.278,2.073,2.073,0,0,0,1.385.688,4.787,4.787,0,0,0,2-.2l.49-.077c.008.15.021.273.021.4,0,.515.014,1.031-.005,1.545a3.623,3.623,0,0,1-.131.626,4.735,4.735,0,0,1-3.024.522A4.45,4.45,0,0,1,45,33.212c-.215-.25-.421-.507-.649-.746a2.593,2.593,0,0,0-.384-.284,4.059,4.059,0,0,1-.782-3.049A4.322,4.322,0,0,1,46.9,25.187a5.489,5.489,0,0,1,3.487.4,2.5,2.5,0,0,1,.127.524c.017.581.019,1.163,0,1.744a1.369,1.369,0,0,1-.19.444ZM13.859,21.078q0,6.2-.005,12.406c0,.385.026.41.415.41,1.861,0,3.722,0,5.583,0a3.664,3.664,0,0,1,.471.059l-6.337.009a1.713,1.713,0,0,1-.19-.024c-.006-.136-.017-.259-.017-.382q0-6.113,0-12.225a2.4,2.4,0,0,1,.065-.387c.005.044.009.087.012.132ZM33.774,34.023c.288-.19.607-.067.912-.086.558-.035,1.119-.046,1.679-.067.117,0,.234,0,.381,0,.019-.261.055-.54.056-.821q.01-1.775,0-3.548c0-.172-.04-.342-.045-.512s-.056-.357.2-.385a3.882,3.882,0,0,0-.072.539c-.006,1.493,0,2.987,0,4.48,0,.416,0,.42-.421.417-.9,0-1.793-.012-2.688-.018ZM61.549,25.35q0,4.052.005,8.1a5.178,5.178,0,0,0,.061.576.991.991,0,0,1-.131-.328c-.01-1.133-.006-2.266-.006-3.4q0-2.3,0-4.6a1.907,1.907,0,0,1,.067-.352Zm24.126,8.681a.536.536,0,0,0,.278-.539q-.025-2.829-.027-5.658a.98.98,0,0,1,.082-.275c.009.858.023,1.716.026,2.574,0,1.145,0,2.289,0,3.433v.444q-.179.013-.358.022Zm-53,0a1.837,1.837,0,0,0,.2-.553c.01-1.9,0-3.8,0-5.694a.871.871,0,0,1,.06-.219c.012.2.033.411.033.616q.006,2.748.005,5.5c0,.2.019.415-.294.355Zm43.083.036a1.393,1.393,0,0,1,.318-.277.954.954,0,0,0,.671-1.17,1.731,1.731,0,0,1,0-.58.319.319,0,0,0-.236-.417l.341-.219c0,.72.005,1.375-.008,2.031,0,.068-.09.159-.16.195-.3.155-.615.293-.925.438ZM70.1,34.031a2.871,2.871,0,0,0,.131-.592c.01-1.688.005-3.375.009-5.063a3.7,3.7,0,0,1,.059-.471q.006,2.937.014,5.874c0,.147,0,.286-.213.251ZM39.42,29a3.241,3.241,0,0,1,.07.466c.005,1.337-.005,2.675.013,4.011a1.858,1.858,0,0,0,.195.553c-.284.056-.283-.123-.283-.324.005-1.57,0-3.138.005-4.707Zm25.162,5.035q0-2.347,0-4.7a2.687,2.687,0,0,1,.06-.4q0,2.424.005,4.848a.935.935,0,0,1-.068.247ZM98.86,25.35a2.236,2.236,0,0,1-.086-.424c-.009-.844,0-1.688-.005-2.531,0-.513,0-.513-.476-.552l.567-.312V25.35Zm.262,6.261c-.286.1-.209-.128-.21-.248-.008-.65,0-1.3,0-1.951,0-.446-.008-.89.005-1.335a1.744,1.744,0,0,1,.1-.384C99.006,28.846,99,30,99,31.154A1.721,1.721,0,0,0,99.122,31.611Zm-23.915-.063c-.211.114-.142-.077-.143-.146-.009-.388-.005-.777-.005-1.165,0-.708-.005-1.416.005-2.124a2.054,2.054,0,0,1,.095-.42c0,1.174-.01,2.347-.01,3.521a1.946,1.946,0,0,0,.059.334Zm19.63-6.195c-.068.122-.189.241-.193.365-.02.593,0,1.187-.011,1.78,0,.259.12.334.358.334a5.685,5.685,0,0,1,.6.061H94.56v-.978c0-.434.008-.868,0-1.3,0-.21.07-.3.28-.26ZM50.385,33.626A3.744,3.744,0,0,0,50.516,33c.019-.515.008-1.031.005-1.545,0-.123-.013-.246-.021-.4l-.49.077.586-.343v.622c0,.615,0,1.229,0,1.844,0,.173-.017.319-.214.369ZM50.321,28.3a1.388,1.388,0,0,0,.191-.443c.023-.58.019-1.163,0-1.744a2.49,2.49,0,0,0-.127-.524c.069.091.2.182.2.274.015.853.009,1.7.009,2.621-.12-.079-.2-.132-.274-.184Zm-10.552,5.73a2.383,2.383,0,0,1,.464-.094c.7-.006,1.41,0,2.115.01a.529.529,0,0,1,.174.072l-2.753.012ZM27.364,27.424a1.068,1.068,0,0,1,.323-.138c.457-.026.917-.037,1.375-.03.1,0,.2.108.294.165l-1.992,0Zm73.062,6.207a2.75,2.75,0,0,0,.133-1.275c.008-.114-.009-.229,0-.342a.328.328,0,0,0-.265-.379l.33-.214c0,.7.006,1.351-.009,2,0,.07-.126.138-.192.207Zm-56.46-1.448a2.756,2.756,0,0,1,.384.284c.227.238.434.5.649.746l-1.033-1.031Zm35.717,2.049c.051-.024.1-.072.152-.07.543.018,1.084.045,1.626.068l-1.778,0Zm20.881-6.547q0-1.168,0-2.335c.022.037.063.074.063.113q.006,1.056,0,2.113c0,.037-.04.074-.061.11Zm-29.773-.679a2.627,2.627,0,0,1,.09.537c-.009.246.109.283.313.289s.412.047.62.074c-.251,0-.5-.01-.754,0-.213.009-.288-.083-.278-.284s.008-.411.01-.617ZM17.365,28.8q0,1.273,0,2.547c-.024-.047-.072-.094-.072-.141,0-.716,0-1.43.009-2.146a1.121,1.121,0,0,1,.062-.26Zm.019-5.242q0,1.241.005,2.483c-.006-.009-.019-.018-.019-.028Q17.376,24.785,17.384,23.556Zm63.331,8.458a1.486,1.486,0,0,0,1.223.282A.915.915,0,0,1,80.715,32.014ZM22.469,73.594a3.089,3.089,0,0,1-.059-.432q-.006-3.182,0-6.366a.711.711,0,0,0-.08-.353l-2.494,3.536c-.1-.127-.175-.219-.243-.316q-1.108-1.575-2.215-3.152a1.385,1.385,0,0,0-.14-.147,1.552,1.552,0,0,0-.07.316q-.006,3.459,0,6.917c-1.009,0-2.018,0-3.027.014-.229,0-.294-.1-.3-.31q-.019-3.163-.047-6.326a1.9,1.9,0,0,0,.06-.333q0-2.7,0-5.4a1.6,1.6,0,0,0-.07-.329,2.832,2.832,0,0,1,.371-.046c.907,0,1.814.006,2.721-.008a.6.6,0,0,1,.562.3c.707,1.046,1.428,2.082,2.145,3.122.07.1.146.2.248.346.122-.172.228-.315.328-.461.682-.992,1.369-1.983,2.042-2.982a.629.629,0,0,1,.588-.321c.93.014,1.861.008,2.79,0,.245,0,.352.082.348.341-.031,1.973-.053,3.947-.077,5.921a.867.867,0,0,0-.128.294c-.013.883-.014,1.767-.015,2.649,0,1.033,0,2.065.009,3.1,0,.234-.078.315-.325.309-.8-.018-1.607-.008-2.41-.01-.4,0-.429-.01-.43-.392q-.008-2.977,0-5.955c0-.146.049-.292.059-.439,0-.046-.045-.095-.07-.142l-.068.017q0,3.519,0,7.043Zm72.031,0c-.859.005-1.72.009-2.579.017-.172,0-.257-.067-.251-.243,0-.091,0-.183,0-.275q0-5.865,0-11.731c0-.5,0-.5.49-.5.757,0,1.513,0,2.27,0a3.064,3.064,0,0,1,.4.056.586.586,0,0,0-.061.182q0,1.926.006,3.854a2.161,2.161,0,0,0,.061.367,3.224,3.224,0,0,0,.368-.155,3.7,3.7,0,0,1,4.26.166,3.183,3.183,0,0,1,1.228,2.613q0,2.566,0,5.13c0,.551,0,.551-.548.516a2.884,2.884,0,0,0-.4-.061c-.561-.006-1.122,0-1.684,0-.483,0-.531-.049-.529-.534.008-1.5.019-3,.023-4.5,0-.041-.067-.083-.1-.126-.319-.778-.745-1.1-1.415-1.029a1.33,1.33,0,0,0-1.191,1.024c-.009-.006-.017-.017-.027-.019a.037.037,0,0,0-.027.006c-.008.1-.019.2-.019.3,0,1.465,0,2.93,0,4.394a.525.525,0,0,1-.274.54ZM63.283,66.366a6.364,6.364,0,0,1,4.783-5.393,9.3,9.3,0,0,1,5.309.251,1.262,1.262,0,0,1,.181.094c.019.056.033.115.058.169.065.149.191.293.195.443.022.673.017,1.347,0,2.021a1.05,1.05,0,0,1-.15.348,4.553,4.553,0,0,0-1.753-.658,6.892,6.892,0,0,0-2.9.114A3.493,3.493,0,0,0,66.576,66.7c-.32,2.544,2.152,4.22,4.133,4.166a5.216,5.216,0,0,0,2.91-.772,1.321,1.321,0,0,1,.189.434c.019.673.005,1.348.009,2.023a1.454,1.454,0,0,0,.056.283,9.938,9.938,0,0,1-1.568.664,7.46,7.46,0,0,1-6.69-1.352,6.093,6.093,0,0,1-2.334-4.072q0-.853,0-1.708Zm19.778,7.082-2.617.014c-.035,0-.083.01-.1-.008-.283-.292-.535-.037-.8.04a5.729,5.729,0,0,1-3.42.055A2.4,2.4,0,0,1,74.376,70.8a3.278,3.278,0,0,1,2.75-2.912,19.156,19.156,0,0,1,2.036-.288,1.387,1.387,0,0,0,.52-.136.516.516,0,0,0,.228-.374c0-.1-.173-.238-.3-.28a1.93,1.93,0,0,0-.607-.093,9.582,9.582,0,0,0-3.8.664c-.053.022-.108.036-.23.076.055-.334.1-.629.155-.921.081-.428.16-.857.265-1.279a.42.42,0,0,1,.237-.273c.658-.15,1.321-.271,1.983-.4.348.019.7.053,1.044.054.314,0,.627-.036.941-.056a5.468,5.468,0,0,1,2.615.851,2.294,2.294,0,0,1,1.031,1.633,3.4,3.4,0,0,0-.054.438c0,1.8,0,3.6-.009,5.394a2.4,2.4,0,0,1-.12.556ZM80.03,70.289c0-.823,0-.817-.821-.647a2.256,2.256,0,0,0-1.3.645.909.909,0,0,0-.17,1.018,1.181,1.181,0,0,0,1.031.488,1.35,1.35,0,0,0,1.259-1.5Zm-32.951-.763a1.084,1.084,0,0,0,.613,1.266,3.755,3.755,0,0,0,2.61.284c.7-.169,1.371-.432,2.056-.653.2.017.229.154.229.317,0,.414-.008.827,0,1.24.006.284.036.567.056.85a4.946,4.946,0,0,1-2.076.837c-.289.065-.588.087-.881.128a.211.211,0,0,0-.061-.03q-.753-.067-1.507-.122s-.009.1-.013.146a4.656,4.656,0,0,1-.6-9.2,5,5,0,0,1,3.038.289,3.892,3.892,0,0,1,2.178,3.248c.032.192.042.387.063.58a2,2,0,0,0-.053.4c.018.262-.109.35-.346.344-.114,0-.229,0-.343,0q-2.249,0-4.5,0a3.913,3.913,0,0,0-.471.064Zm-.143-1.789h2.784A1.151,1.151,0,0,0,48.6,66.644c-1.058-.11-1.51.291-1.659,1.093Zm-4.88-3.044c.493.009.986.03,1.479.022.271,0,.4.07.387.367-.019.6-.017,1.195,0,1.791.005.246-.094.323-.324.317-.457-.009-.916,0-1.4,0a2.763,2.763,0,0,0-.031.288q0,1.584,0,3.169c0,.49.248.722.74.635a7.949,7.949,0,0,0,.969-.3.793.793,0,0,1,.036.179c0,.562.013,1.125,0,1.688a.47.47,0,0,1-.168.337,3.618,3.618,0,0,1-3.187.461,2.348,2.348,0,0,1-1.686-2.663,1.982,1.982,0,0,0,.07-.362q.01-1.435,0-2.868a2,2,0,0,0-.069-.362c-.293-.021-.585-.055-.878-.058-.215,0-.307-.072-.3-.3q.014-1.01,0-2.021c0-.233.1-.289.31-.3.292-.012.581-.049.872-.076a2.658,2.658,0,0,0,.07-.4c.009-.433.008-.864,0-1.3,0-.207.015-.388.26-.455.032-.009.042-.1.064-.147l2.577-1.355a1.989,1.989,0,0,1,.127.478c.012.962,0,1.922.01,2.884a1.41,1.41,0,0,0,.074.341Zm-4.164,6.964a3.147,3.147,0,0,1-2.47,1.869,8.7,8.7,0,0,1-4.379-.282.51.51,0,0,1-.434-.584c.032-.673.009-1.35.009-2.105l.9.337a.271.271,0,0,0-.065.017c-.015.008-.023.028-.042.053a6.664,6.664,0,0,0,2.7.27c.1-.006.183-.137.274-.209.324-.406.28-.684-.2-.877-.379-.151-.8-.209-1.191-.323a6.454,6.454,0,0,1-.942-.319,2.322,2.322,0,0,1-1.009-3.379A3.1,3.1,0,0,1,33.4,64.568a7.481,7.481,0,0,1,3.489.4c.074.023.182.1.187.163.068.727.119,1.457.178,2.229a11.8,11.8,0,0,0-1.242-.337,11.1,11.1,0,0,0-1.4-.1.683.683,0,0,0-.38.129.332.332,0,0,0,.054.62,3.908,3.908,0,0,0,.762.193,4.23,4.23,0,0,1,2.35,1.129,5.23,5.23,0,0,1,.567.886,1.563,1.563,0,0,0-.061.291c-.008.275,0,.549,0,.825,0,.224-.006.446-.009.667ZM89.81,64.921c.435.065.458.088.48.508l.1,1.935c-.113-.032-.205-.053-.293-.085a5.582,5.582,0,0,0-2.12-.381,1.05,1.05,0,0,0-.467.078.611.611,0,0,0-.292.375c-.012.1.149.282.273.335a3.1,3.1,0,0,0,.7.173,4.822,4.822,0,0,1,2.021.825,2.429,2.429,0,0,1,.57,3.474,3.179,3.179,0,0,1-2.156,1.359,8.463,8.463,0,0,1-4.348-.259.671.671,0,0,1-.119-.065.634.634,0,0,1-.27-.609c.01-.535,0-1.069,0-1.6a.745.745,0,0,1,.048-.193h.49a6.7,6.7,0,0,0,2.433.38A1.657,1.657,0,0,0,87.512,71a.386.386,0,0,0,.038-.713,3.436,3.436,0,0,0-.818-.332c-.458-.142-.944-.213-1.384-.394a2.365,2.365,0,0,1-.954-3.74,5.8,5.8,0,0,1,.511-.508c.259-.049.519-.094.777-.147.035-.008.055-.067.088-.092.119-.092.229-.23.362-.261a5.247,5.247,0,0,1,1.106-.163,7.218,7.218,0,0,1,1.143.126c.437.067.868.156,1.3.228.037.008.083-.051.124-.079ZM56.518,65.4a3.411,3.411,0,0,1,1.777-.908,1.815,1.815,0,0,1,1.411.186.615.615,0,0,1,.246.406c.023.8.011,1.606.009,2.41a.94.94,0,0,1-.036.17l-.4-.207a2.093,2.093,0,0,0-2.793.682,1.287,1.287,0,0,0-.206.667c-.018,1.469-.009,2.937-.01,4.406,0,.4-.005.4-.4.4-.791,0-1.584-.006-2.375.006-.259,0-.333-.088-.332-.341q.012-4.183,0-8.365c0-.288.11-.347.364-.343.791.01,1.584.014,2.375,0,.284-.005.4.088.374.374-.012.119,0,.243,0,.457ZM30.174,63.181a1.819,1.819,0,0,1-3.082.67,1.87,1.87,0,0,1-.072-2.346,1.838,1.838,0,0,1,2.275-.4,1.6,1.6,0,0,0,.328.425,1.128,1.128,0,0,1,.5.983c.012.224.033.448.051.672ZM30.1,64.775a.689.689,0,0,1,.015.1q0,4.292-.005,8.585l-.2-.006a3.806,3.806,0,0,0,.065-.506q.006-3.507,0-7.013V64.914H26.81c.021-.042.04-.085.06-.128l3.23-.01Zm-7.632,8.818V66.548l.068-.017c.024.047.073.1.07.142-.01.147-.059.292-.059.439q-.008,2.977,0,5.955c0,.382.029.391.43.392.8,0,1.607-.008,2.41.01.247.005.326-.074.325-.309-.008-1.032-.009-2.065-.009-3.1,0-.883,0-1.767.015-2.649a.867.867,0,0,1,.128-.294l-.012,2.9a2.141,2.141,0,0,0-.053.335c0,.835,0,1.671.005,2.506.046.928.037.732-.7.741-.873.012-1.745-.005-2.617-.009ZM89.81,64.921c-.042.028-.088.086-.124.081-.435-.072-.868-.161-1.3-.228a7.062,7.062,0,0,0-1.143-.126,5.257,5.257,0,0,0-1.106.163c-.134.031-.245.169-.362.261-.033.026-.054.086-.088.092-.257.054-.517.1-.777.147a2.967,2.967,0,0,1,1.562-.725,6.828,6.828,0,0,1,3.343.334Zm-62.937-.136c-.021.042-.04.085-.06.128,0,2.663,0,5.327,0,7.99a2.419,2.419,0,0,0,.133.553l-.2-.064c0-1.831-.012-3.662-.01-5.493,0-1.041.013-2.082.019-3.123l.115.009Zm70.578,3.585c.036.042.1.083.1.125,0,1.5-.017,3-.023,4.5,0,.484.046.531.529.534.561,0,1.122,0,1.684,0a2.683,2.683,0,0,1,.4.061c-.791,0-1.584,0-2.375.015-.273.006-.323-.11-.321-.348.008-1.631.005-3.26,0-4.89ZM17.161,73.6q0-3.459,0-6.917a1.483,1.483,0,0,1,.07-.316q0,3.424,0,6.848a2.414,2.414,0,0,1-.069.385Zm65.9-.15a2.637,2.637,0,0,0,.124-.556c.009-1.8.005-3.6.009-5.394a3.417,3.417,0,0,1,.054-.438q.008,1.7.015,3.407,0,1.343,0,2.685c0,.136.058.329-.2.3ZM47.079,69.526a3.455,3.455,0,0,1,.469-.061c1.5-.005,3,0,4.5,0,.114,0,.229-.005.343,0,.237.005.364-.082.346-.344a1.987,1.987,0,0,1,.053-.4v.814H47.079ZM94.5,73.591a.53.53,0,0,0,.275-.54c-.008-1.465,0-2.93,0-4.394,0-.1.012-.2.019-.3a.037.037,0,0,1,.027-.006c.01,0,.018.013.027.019v5.207c-.129.009-.238.014-.346.019ZM34.388,71.025c-.091.073-.179.2-.274.209a6.709,6.709,0,0,1-2.7-.27c.018-.024.027-.044.042-.053a.272.272,0,0,1,.065-.017c.643.093,1.283.218,1.928.269a4.012,4.012,0,0,0,.939-.138Zm60.447-5.7a2.16,2.16,0,0,1-.061-.367q-.01-1.926-.006-3.854a.612.612,0,0,1,.061-.182q0,2.2.006,4.4Zm-64.661-2.14c-.018-.224-.04-.447-.053-.671a1.126,1.126,0,0,0-.5-.983,1.6,1.6,0,0,1-.328-.425,1.671,1.671,0,0,1,.88,2.079Zm11.882,1.512a1.547,1.547,0,0,1-.078-.339c-.006-.962,0-1.922-.01-2.883a1.985,1.985,0,0,0-.127-.478c.229-.132.215.036.216.178q0,1.043,0,2.087c0,.478,0,.956,0,1.435Zm31.6-.4a1.028,1.028,0,0,0,.15-.348c.014-.673.019-1.348,0-2.021a1.408,1.408,0,0,0-.195-.443c-.024-.054-.038-.113-.058-.169.3.077.353.275.346.565-.021.846-.008,1.693-.008,2.616l-.234-.2Zm10.764,6.489h-.49a.751.751,0,0,0-.047.193c0,.535.01,1.069,0,1.6a.631.631,0,0,0,.27.609c-.254-.032-.365-.152-.357-.43.019-.708.006-1.417.006-2.173.233.073.425.134.617.2Zm-45.554-3.4a1.978,1.978,0,0,1,.069.362q.01,1.435,0,2.868a2.027,2.027,0,0,1-.07.362q0-1.8,0-3.593Zm-12.122,6,.2.064,2.963,0,.2.006a1.268,1.268,0,0,1-.284.065c-.93.005-1.86.008-2.79,0-.1,0-.192-.085-.289-.131Zm.126-8.607-.115-.008a.981.981,0,0,1,.228-.055q1.442-.006,2.886,0a.968.968,0,0,1,.229.053l-3.228.009Zm47,8.05a1.491,1.491,0,0,1-.056-.283c0-.675.01-1.35-.009-2.023a1.3,1.3,0,0,0-.189-.434l.255-.163v2.9ZM37.892,71.658c0-.221.006-.443.008-.664,0-.275-.006-.551,0-.825a1.574,1.574,0,0,1,.061-.291A2.859,2.859,0,0,1,37.892,71.658Zm1.371-9.311c-.021.051-.032.138-.064.147-.245.067-.262.247-.26.455.005.433.006.864,0,1.3a2.391,2.391,0,0,1-.071.4c-.005-.627,0-1.255-.017-1.881-.006-.3.214-.338.414-.414ZM25.783,72.861c0-.836-.006-1.671-.005-2.506a2.172,2.172,0,0,1,.053-.335c0,.835.006,1.671.005,2.506A2.141,2.141,0,0,1,25.783,72.861Zm26.863-.031c-.019-.283-.049-.567-.056-.85-.01-.414-.005-.826,0-1.239,0-.164-.03-.3-.229-.317l.288-.141V72.83ZM79.6,64.576c-.314.021-.627.056-.941.056-.348,0-.7-.035-1.044-.054l1.985,0Zm-31.5,9.216c.005-.051.013-.146.013-.146q.754.055,1.507.122a.192.192,0,0,1,.061.03Zm15.175-7.426q0,.855,0,1.708Q63.282,67.221,63.282,66.366Zm-33.37,7.09-2.963,0a2.486,2.486,0,0,1-.133-.553q-.012-3.995,0-7.99h3.169v1.023q0,3.507,0,7.013a4.013,4.013,0,0,1-.067.5Z" transform="translate(-5.541 -16.658)" fill="#557260"/>
</svg>