<svg xmlns="http://www.w3.org/2000/svg" xmlns:xlink="http://www.w3.org/1999/xlink" width="1209" height="73.067" viewBox="0 0 1209 73.067">
  <defs>
    <clipPath id="clip-path">
      <rect id="Rectangle_60" data-name="Rectangle 60" width="1209" height="73.067" transform="translate(0 0)" fill="none"/>
    </clipPath>
  </defs>
  <g id="Group_11" data-name="Group 11" transform="translate(0 0)">
    <g id="Group_10" data-name="Group 10" clip-path="url(#clip-path)">
      <path id="Path_34" data-name="Path 34" d="M1017.022,25.684a21.54,21.54,0,0,0-3.586.3l-1.035,1.556,2.093,2.418a17.907,17.907,0,0,1,2.524-.181,17.617,17.617,0,1,1-13.972,6.889l-4.313-1.22-.59,1.22a21.714,21.714,0,1,0,18.881-10.973Z" fill="#1f0003" fill-rule="evenodd"/>
      <path id="Path_35" data-name="Path 35" d="M1032.4,10.074a1.325,1.325,0,0,0,.207-2.642,1.431,1.431,0,0,0-.207,0h-5.958V5.092a.407.407,0,0,0-.406-.407h-1.319a.407.407,0,0,0-.406.407V5.5h-5.822a2.813,2.813,0,0,0-2.8,2.8v1.707h-4.8l1.1,4.117h3.713v3.125a2.812,2.812,0,0,0,2.8,2.8h5.815v.351a.407.407,0,0,0,.406.407h1.319a.407.407,0,0,0,.407-.407V18.1h5.953a1.327,1.327,0,1,0,0-2.654h-5.96V10.078h5.958Z" fill="#557260" fill-rule="evenodd"/>
      <path id="Path_36" data-name="Path 36" d="M1007.907,4.116h5.361a2.058,2.058,0,0,0,0-4.116H997.191a2.063,2.063,0,0,0-2.069,2.056v0a2.063,2.063,0,0,0,2.059,2.058h6.475l1.569,5.893H978a2.438,2.438,0,0,0-2.05,4.011l8.014,13.474a4.244,4.244,0,0,0,2.16,1.829l26.809,9.385,2.3,8.784c.8,3.026,4.784,2.272,4.009-.941ZM987.4,25.47,981,14.122h25.308l5.175,19.441Z" fill="#557260" fill-rule="evenodd"/>
      <path id="Path_37" data-name="Path 37" d="M972.419,9.77l-3.934-7.738a1.744,1.744,0,0,0-2.339-.489c-.481.241-1.347,1.087-.92,1.963l3.59,7.359-1.987,6.909c-.256,1.067-1.091,3.59-1.532,5.328l-6.984,24.3a2.066,2.066,0,1,0,3.975,1.067L969.6,22.837l1.9-6.656,1.075-3.769a3.661,3.661,0,0,0-.159-2.642" fill="#557260" fill-rule="evenodd"/>
      <path id="Path_38" data-name="Path 38" d="M967.248,26.466,966.122,30.4a17.629,17.629,0,1,1-4.661-.624c.2,0,.406,0,.593.012l1.159-4.033c-.577-.047-1.165-.071-1.754-.071a21.682,21.682,0,1,0,5.787.778Z" fill="#1f0003" fill-rule="evenodd"/>
    </g>
  </g>
</svg>
