<svg xmlns="http://www.w3.org/2000/svg" width="42.906" height="30.647" viewBox="0 0 42.906 30.647">
  <g id="Icon_ionic-ios-card" data-name="Icon ionic-ios-card" transform="translate(-2.25 -6.75)">
    <path id="Path_51" data-name="Path 51" d="M45.156,9.815A3.074,3.074,0,0,0,42.091,6.75H5.315A3.074,3.074,0,0,0,2.25,9.815v4.6H45.156Z" fill="#9fb38e"/>
    <path id="Path_52" data-name="Path 52" d="M2.25,31.074a3.074,3.074,0,0,0,3.065,3.065H42.091a3.074,3.074,0,0,0,3.065-3.065V15.75H2.25Zm13.6-4.6H31.556A1.345,1.345,0,0,1,32.9,27.817h0a1.345,1.345,0,0,1-1.341,1.341H15.85a1.345,1.345,0,0,1-1.341-1.341h0A1.345,1.345,0,0,1,15.85,26.476Zm-6.9,0H10.1a1.345,1.345,0,0,1,1.341,1.341h0A1.345,1.345,0,0,1,10.1,29.158H8.954a1.345,1.345,0,0,1-1.341-1.341h0A1.345,1.345,0,0,1,8.954,26.476Z" transform="translate(0 3.259)" fill="#9fb38e"/>
  </g>
</svg>
