<svg xmlns="http://www.w3.org/2000/svg" width="22.829" height="20.292" viewBox="0 0 22.829 20.292">
  <path id="Icon_awesome-shopping-cart" data-name="Icon awesome-shopping-cart" d="M20.931,11.942,22.8,3.7a.951.951,0,0,0-.928-1.162H6.31L5.947.761A.951.951,0,0,0,5.015,0H.951A.951.951,0,0,0,0,.951v.634a.951.951,0,0,0,.951.951h2.77L6.505,16.148a2.22,2.22,0,1,0,2.657.339h8.309a2.219,2.219,0,1,0,2.521-.412l.219-.962a.951.951,0,0,0-.928-1.162H8.645l-.259-1.268H20A.951.951,0,0,0,20.931,11.942Z" fill="#f1f2eb"/>
</svg>