<svg xmlns="http://www.w3.org/2000/svg" width="259.125" height="259.125" viewBox="0 0 259.125 259.125">
  <path id="Icon_awesome-check-circle" data-name="Icon awesome-check-circle" d="M259.688,130.125A129.562,129.562,0,1,1,130.125.563,129.562,129.562,0,0,1,259.688,130.125Zm-144.549,68.6L211.266,102.6a8.359,8.359,0,0,0,0-11.821L199.445,78.958a8.359,8.359,0,0,0-11.822,0l-78.4,78.395-36.6-36.6a8.36,8.36,0,0,0-11.822,0L48.984,132.573a8.359,8.359,0,0,0,0,11.821l54.333,54.333a8.359,8.359,0,0,0,11.822,0Z" transform="translate(-0.563 -0.563)" fill="#557260"/>
</svg>
