<svg xmlns="http://www.w3.org/2000/svg" width="29.915" height="29.915" viewBox="0 0 29.915 29.915">
  <path id="Icon_awesome-check-circle" data-name="Icon awesome-check-circle" d="M30.477,15.52A14.957,14.957,0,1,1,15.52.563,14.957,14.957,0,0,1,30.477,15.52ZM13.79,23.44l11.1-11.1a.965.965,0,0,0,0-1.365L23.522,9.613a.965.965,0,0,0-1.365,0l-9.05,9.05L8.882,14.438a.965.965,0,0,0-1.365,0L6.153,15.8a.965.965,0,0,0,0,1.365l6.272,6.272a.965.965,0,0,0,1.365,0Z" transform="translate(-0.563 -0.563)" fill="#9fb38e"/>
</svg>
