<?xml version="1.0" encoding="UTF-8"?>
<svg id="Layer_1" data-name="Layer 1" xmlns="http://www.w3.org/2000/svg" viewBox="0 0 494.93 345.55">
  <defs>
    <style>
      .cls-1 {
        fill: #557260;
        fill-rule: evenodd;
      }
    </style>
  </defs>
  <g id="Bike">
    <path class="cls-1" d="m386.37,128.43c-6.11,0-12.09.51-17.92,1.48l-5.16,7.79,10.47,12.1c4.12-.59,8.33-.9,12.61-.9,48.65,0,88.09,39.44,88.09,88.09s-39.44,88.09-88.09,88.09-88.09-39.44-88.09-88.09c0-20.19,6.79-38.78,18.21-53.64l-21.58-6.08-2.95,6.08c-9.01,15.82-14.16,34.12-14.16,53.64,0,59.95,48.61,108.56,108.56,108.56s108.56-48.61,108.56-108.56-48.61-108.56-108.56-108.56Z"/>
    <path class="cls-1" d="m463.21,50.38c3.62,0,6.63-2.98,6.63-6.62s-2.98-6.62-6.63-6.62h-29.8v-11.71c0-1.11-.9-2.01-2.01-2.01h-6.59c-1.11,0-2.01.9-2.01,2.01v2.04h-29.08c-7.71,0-14.02,6.31-14.02,14.02v8.54h-24.04l5.49,20.58h18.55v15.62c0,7.71,6.31,14.02,14.02,14.02h29.08v1.75c0,1.11.91,2.01,2.01,2.01h6.59c1.1,0,2.01-.9,2.01-2.01v-11.6h29.8c3.63,0,6.63-2.98,6.63-6.62s-2.98-6.63-6.63-6.63h-29.8v-26.78h29.8Z"/>
    <path class="cls-1" d="m340.8,20.58h26.8c5.66,0,10.29-4.63,10.29-10.29h0c0-5.66-4.63-10.29-10.29-10.29h-80.39c-5.66,0-10.29,4.63-10.29,10.29h0c0,5.66,4.63,10.29,10.29,10.29h32.29l7.84,29.44h-136.09c-7.09,0-18.35,6.51-10.25,20.12l40.07,67.37c2.39,4.01,6.27,7.54,10.79,9.12l134.04,46.92,11.48,43.91c4,15.14,23.91,11.35,20.05-4.72l-56.62-212.18Zm-102.56,106.77l-31.96-56.75h126.54l25.89,97.19-120.47-40.45Z"/>
    <path class="cls-1" d="m163.36,48.88l-19.67-38.68c-2.26-4.44-8.18-4.21-11.69-2.44-2.4,1.21-6.73,5.43-4.6,9.82,2.14,4.39,17.94,36.81,17.94,36.81l-9.94,34.59c-1.28,5.34-5.47,17.96-7.66,26.64l-34.93,121.49c-3.76,14.35,15.57,19.86,19.88,5.32l36.59-128.15c.95-3.31,9.51-33.29,9.51-33.29l5.39-18.86c1.24-4.34,1.25-9.18-.82-13.25Z"/>
    <path class="cls-1" d="m137.5,132.34l-5.62,19.69c37.33,10.22,64.77,44.38,64.77,84.96,0,48.65-39.44,88.09-88.09,88.09s-88.09-39.44-88.09-88.09,39.44-88.09,88.09-88.09c.99,0,1.98.02,2.97.06l5.8-20.17c-2.89-.23-5.82-.36-8.77-.36C48.6,128.43,0,177.03,0,236.99s48.6,108.56,108.56,108.56,108.56-48.6,108.56-108.56c0-49.93-33.72-91.99-79.62-104.65Z"/>
  </g>
</svg>