<?xml version="1.0" encoding="UTF-8"?>
<svg id="Layer_1" data-name="Layer 1" xmlns="http://www.w3.org/2000/svg" viewBox="0 0 636.46 417.1">
  <defs>
    <style>
      .cls-1 {
        fill: #d9e0d3;
      }

      .cls-2, .cls-3 {
        fill: #557260;
      }

      .cls-3 {
        fill-rule: evenodd;
      }
    </style>
  </defs>
  <g>
    <path class="cls-1" d="m549.23,147.62c48.18,0,87.23-33.05,87.23-73.81S597.41,0,549.23,0s-87.23,33.05-87.23,73.81c0,16.19,6.16,31.16,16.61,43.36-1.47,3.94-3.65,7.42-5.95,10.36-2.01,2.6-4.07,4.61-5.58,6-.75.67-1.38,1.22-1.8,1.55-.21.17-.38.29-.46.34l-.08.08h0c-2.31,1.72-14.89,10.87-14.95,13.74-.06,3.05,14.19,1.86,16.84,1.52,11.8-1.52,20.46-5.49,28.13-8.38,3.86-1.47,7.46-3.1,10.57-4.78,12.92,6.37,27.89,10.02,43.91,10.02Z"/>
    <path class="cls-2" d="m513.69,70.13c-.09,1.13-.13,2.26-.13,3.41s.04,2.28.13,3.41h-10.38v13.65h13.39c6.87,17.96,24.3,30.71,44.68,30.71h10.25v-13.65h-10.25c-12.64,0-23.68-6.87-29.59-17.06h33.01v-13.65h-37.4c-.11-1.13-.17-2.26-.17-3.41s.06-2.28.17-3.41h37.4v-13.65h-33.01c5.91-10.19,16.95-17.06,29.59-17.06h10.25v-13.65h-10.25c-20.39,0-37.81,12.75-44.68,30.71h-13.39v13.65h10.38Z"/>
  </g>
  <g id="Bike">
    <path class="cls-3" d="m371.6,208.28c-5.88,0-11.63.49-17.23,1.42l-4.96,7.49,10.07,11.64c3.96-.57,8.01-.87,12.13-.87,46.79,0,84.72,37.93,84.72,84.72s-37.93,84.72-84.72,84.72-84.72-37.93-84.72-84.72c0-19.42,6.53-37.3,17.51-51.59l-20.75-5.85-2.84,5.85c-8.67,15.22-13.62,32.82-13.62,51.59,0,57.66,46.75,104.41,104.41,104.41s104.41-46.75,104.41-104.41-46.75-104.41-104.41-104.41h0Z"/>
    <path class="cls-3" d="m445.5,133.22c3.48,0,6.38-2.87,6.38-6.37s-2.87-6.37-6.38-6.37h-28.66v-11.26c0-1.07-.87-1.93-1.93-1.93h-6.34c-1.07,0-1.93.87-1.93,1.93v1.96h-27.97c-7.42,0-13.48,6.07-13.48,13.48v8.21h-23.12l5.28,19.79h17.84v15.02c0,7.42,6.07,13.48,13.48,13.48h27.97v1.68c0,1.07.88,1.93,1.93,1.93h6.34c1.06,0,1.93-.87,1.93-1.93v-11.16h28.66c3.49,0,6.38-2.87,6.38-6.37s-2.87-6.38-6.38-6.38h-28.66v-25.76h28.66Z"/>
    <path class="cls-3" d="m327.77,104.56h25.78c5.44,0,9.9-4.45,9.9-9.9h0c0-5.44-4.45-9.9-9.9-9.9h-77.32c-5.44,0-9.9,4.45-9.9,9.9h0c0,5.44,4.45,9.9,9.9,9.9h31.06l7.54,28.31h-130.89c-6.82,0-17.65,6.26-9.86,19.35l38.54,64.79c2.3,3.86,6.03,7.25,10.38,8.77l128.92,45.13,11.04,42.23c3.85,14.56,23,10.92,19.28-4.54l-54.46-204.07v.02Zm-98.64,102.69l-30.74-54.58h121.7l24.9,93.47-115.86-38.9h0Z"/>
    <path class="cls-3" d="m157.11,131.77l-18.92-37.2c-2.17-4.27-7.87-4.05-11.24-2.35-2.31,1.16-6.47,5.22-4.42,9.44,2.06,4.22,17.25,35.4,17.25,35.4l-9.56,33.27c-1.23,5.14-5.26,17.27-7.37,25.62l-33.59,116.85c-3.62,13.8,14.97,19.1,19.12,5.12l35.19-123.25c.91-3.18,9.15-32.02,9.15-32.02l5.18-18.14c1.19-4.17,1.2-8.83-.79-12.74h0Z"/>
    <path class="cls-3" d="m132.24,212.04l-5.41,18.94c35.9,9.83,62.29,42.68,62.29,81.71,0,46.79-37.93,84.72-84.72,84.72s-84.72-37.93-84.72-84.72,37.93-84.72,84.72-84.72c.95,0,1.9.02,2.86.06l5.58-19.4c-2.78-.22-5.6-.35-8.43-.35C46.74,208.28,0,255.02,0,312.69s46.74,104.41,104.41,104.41,104.41-46.74,104.41-104.41c0-48.02-32.43-88.47-76.58-100.65Z"/>
  </g>
</svg>