<svg xmlns="http://www.w3.org/2000/svg" width="24.953" height="24.953" viewBox="0 0 24.953 24.953">
  <path id="Icon_material-account-circle" data-name="Icon material-account-circle" d="M15.476,3A12.476,12.476,0,1,0,27.953,15.476,12.481,12.481,0,0,0,15.476,3Zm0,3.743a3.743,3.743,0,1,1-3.743,3.743A3.738,3.738,0,0,1,15.476,6.743Zm0,17.716a8.984,8.984,0,0,1-7.486-4.017c.037-2.483,4.991-3.843,7.486-3.843s7.448,1.36,7.486,3.843a8.984,8.984,0,0,1-7.486,4.017Z" transform="translate(-3 -3)" fill="#f1f2eb"/>
</svg>