<svg xmlns="http://www.w3.org/2000/svg" width="78.481" height="62.188" viewBox="0 0 78.481 62.188">
  <path id="Icon_awesome-cc-mastercard" data-name="Icon awesome-cc-mastercard" d="M65.8,54.694A1.529,1.529,0,1,1,64.27,53.07,1.539,1.539,0,0,1,65.8,54.694ZM23.449,53.07a1.631,1.631,0,1,0,1.485,1.624A1.523,1.523,0,0,0,23.449,53.07Zm16.01-.042a1.272,1.272,0,0,0-1.294,1.208h2.6A1.261,1.261,0,0,0,39.458,53.028Zm14.688.042a1.627,1.627,0,1,0,1.526,1.624A1.523,1.523,0,0,0,54.146,53.07Zm14.429,3.623c0,.042.041.069.041.153,0,.042-.041.069-.041.153a.488.488,0,0,0-.068.111.175.175,0,0,1-.15.069c-.041.042-.068.042-.15.042a.266.266,0,0,1-.15-.042c-.041,0-.068-.042-.109-.069s-.068-.069-.068-.111a.256.256,0,0,1-.041-.153c0-.069,0-.111.041-.153a.263.263,0,0,1,.068-.153c.041-.042.068-.042.109-.069a.244.244,0,0,1,.15-.042c.068,0,.109,0,.15.042.068.042.109.042.15.069S68.535,56.623,68.575,56.693Zm-.3.194c.068,0,.068-.042.109-.042a.171.171,0,0,0,0-.222c-.041,0-.068-.042-.15-.042h-.218v.486h.109v-.194h.041l.15.194h.109l-.15-.18Zm10.205-47.9V57.845a6.6,6.6,0,0,1-6.54,6.663H6.54A6.6,6.6,0,0,1,0,57.845V8.983A6.6,6.6,0,0,1,6.54,2.32h65.4A6.6,6.6,0,0,1,78.481,8.983ZM8.72,28.361A19.058,19.058,0,0,0,27.591,47.587,18.748,18.748,0,0,0,38.014,44.38a20.949,20.949,0,0,1,0-32A18.639,18.639,0,0,0,27.591,9.178,19.04,19.04,0,0,0,8.72,28.361Zm30.52,15.1a19.444,19.444,0,0,0,0-30.191A19.444,19.444,0,0,0,39.24,43.464ZM19.852,54.055a1.928,1.928,0,0,0-2-2.041,1.937,1.937,0,0,0-1.744.9,1.8,1.8,0,0,0-1.662-.9,1.719,1.719,0,0,0-1.444.75v-.611H11.881v5.094H13c0-2.624-.341-4.192,1.226-4.192,1.39,0,1.117,1.416,1.117,4.192h1.076c0-2.54-.341-4.192,1.226-4.192,1.39,0,1.117,1.388,1.117,4.192h1.117V54.055Zm6.118-1.9H24.893v.611a1.95,1.95,0,0,0-1.594-.75,2.687,2.687,0,0,0,0,5.358,1.876,1.876,0,0,0,1.594-.75v.639H25.97Zm5.518,3.554c0-2.082-3.12-1.138-3.12-2.11,0-.791,1.621-.666,2.521-.153l.45-.9c-1.281-.847-4.115-.833-4.115,1.138s3.12,1.152,3.12,2.082c0,.875-1.839.805-2.82.111l-.477.875C28.572,57.8,31.488,57.581,31.488,55.707ZM36.311,57l-.3-.944c-.518.292-1.662.611-1.662-.569v-2.3h1.785V52.154H34.349V50.6H33.232v1.555H32.2v1.013h1.036v2.318c0,2.443,2.357,2,3.079,1.513Zm1.812-1.86H41.87C41.87,52.889,40.862,52,39.5,52a2.479,2.479,0,0,0-2.48,2.679c0,2.846,3.079,3.318,4.605,1.971l-.518-.833c-1.063.888-2.671.805-2.984-.68Zm8.052-2.984a1.582,1.582,0,0,0-2.071.611v-.611H42.987v5.094H44.1V54.375c0-1.61,1.294-1.4,1.744-1.166l.327-1.055Zm1.444,2.54c0-1.582,1.581-2.1,2.82-1.166l.518-.9a2.714,2.714,0,1,0,0,4.164l-.518-.9C49.187,56.79,47.62,56.249,47.62,54.694Zm9.088-2.54H55.591v.611c-1.131-1.527-4.074-.666-4.074,1.929,0,2.665,3.052,3.429,4.074,1.929v.639h1.117V52.154Zm4.592,0a1.619,1.619,0,0,0-2.071.611v-.611H58.152v5.094h1.076V54.375a1.145,1.145,0,0,1,1.744-1.166l.327-1.055Zm5.491-2.068H65.714v2.679c-1.117-1.513-4.074-.708-4.074,1.929,0,2.693,3.066,3.415,4.074,1.929v.639h1.076Zm1.036-10.425V40.3h.109v-.639h.259V39.55h-.627v.111h.259Zm.9,17.185a.43.43,0,0,0-.041-.222c-.041-.042-.068-.111-.109-.153s-.109-.069-.15-.111c-.068,0-.15-.042-.218-.042a1.425,1.425,0,0,1-.191.042.712.712,0,0,0-.15.111.217.217,0,0,0-.109.153.43.43,0,0,0-.041.222.41.41,0,0,0,.041.194.217.217,0,0,0,.109.153.473.473,0,0,0,.15.111.364.364,0,0,0,.191.042.409.409,0,0,0,.218-.042c.041-.042.109-.069.15-.111s.068-.111.109-.153A.41.41,0,0,0,68.725,56.845Zm.436-17.31h-.191l-.218.486-.218-.486h-.191v.75h.109v-.569l.218.486h.15l.191-.486v.569h.15Zm.6-11.174A19.06,19.06,0,0,0,50.89,9.164,18.748,18.748,0,0,0,40.467,12.37c9.824,8.232,9.974,23.806,0,32A18.7,18.7,0,0,0,50.89,47.573,19.037,19.037,0,0,0,69.761,28.361Z" transform="translate(0 -2.32)" fill="#557260"/>
</svg>