<svg xmlns="http://www.w3.org/2000/svg" width="583.982" height="489.734" viewBox="0 0 583.982 489.734">
  <path id="Path_89" data-name="Path 89" d="M412.08,115.295V31.055A11.368,11.368,0,0,0,408.556,9H359.785a11.368,11.368,0,1,0,0,22.737h29.558V70.731a380.278,380.278,0,0,0-64.232,7.5,346.08,346.08,0,0,0-35.7,9.322V81.644a11.368,11.368,0,0,0-11.368-11.368H259.63a6.935,6.935,0,0,1-7.048-6.935,7.048,7.048,0,0,1,7.048-7.048h30.581a11.368,11.368,0,1,0,0-22.737H259.63a29.785,29.785,0,1,0,0,59.457h7.048v.909a11.367,11.367,0,0,0,0,2.046,172,172,0,0,0-62.072,42.859C164.59,184.3,149.128,242.053,143.331,282.865v2.274a229.187,229.187,0,0,1-13.756,59,168.937,168.937,0,0,1-17.394,31.6,67.074,67.074,0,1,0,16.712,15.8,202.358,202.358,0,0,0,21.714-38.539,256.815,256.815,0,0,0,15.234-64.686v-2.274c5.343-37.743,19.44-90.947,55.819-132.1,22.737-25.693,57.979-43.2,107.773-53.545A361.742,361.742,0,0,1,389,93.467v21.827a191.672,191.672,0,1,0,22.737,0ZM119.457,431.223a43.882,43.882,0,1,1-43.882-43.768,43.314,43.314,0,0,1,22.737,6.366A237.48,237.48,0,0,1,68.64,422.469a11.355,11.355,0,0,0,14.324,17.621,258.737,258.737,0,0,0,31.149-29.672A43.427,43.427,0,0,1,119.457,431.223ZM420.947,329.931,410.83,309.695a11.368,11.368,0,0,0-20.349,10.118l10.232,20.349h0a25.579,25.579,0,1,1,20.349-10.232ZM400.825,475.105a168.707,168.707,0,0,1-11.368-337.074V267.973A48.088,48.088,0,0,0,411.4,361.421l3.638,7.276a11.368,11.368,0,0,0,10.118,6.253,10.345,10.345,0,0,0,5.116-1.251,11.368,11.368,0,0,0,5.116-15.234l-3.752-7.389a47.861,47.861,0,0,0-19.44-83.217V138.032a168.707,168.707,0,0,1-11.368,337.074Z" transform="translate(-8.061 -9)" fill="#557260"/>
</svg>
