<svg xmlns="http://www.w3.org/2000/svg" width="741.463" height="650.008" viewBox="0 0 741.463 650.008">
  <path id="Path_79" data-name="Path 79" d="M315.687,507.932a15.764,15.764,0,0,1,15.805-27.281l109.824,63.407a15.948,15.948,0,0,0,21.618-5.822L471.7,523.1a15.97,15.97,0,0,0,1.521-12.054,15.8,15.8,0,0,0-7.352-9.619L356.049,438.022l-2.081-1.437c-12.931-8.854-27.44-12.521-42.424-12.521-18.959,0-38.729,5.775-57.315,14.462L143.109,492.882l58.714,141.182,55.15-25.2a15.711,15.711,0,0,1,6.354-1.418l210.449-2.528C558.063,557.3,644.991,510.395,728.1,461.207a15.708,15.708,0,0,0,7.25-9.591,15.992,15.992,0,0,0-1.017-11.131c-2.762-5.234-6.13-11.075-9.274-16.066a12.9,12.9,0,0,0-8.042-6.083c-4.749-1.269-10.44-.69-15.973,1.372L500.609,494.571a47.919,47.919,0,0,1,3.088,8.341,47.24,47.24,0,0,1-4.712,35.93l-8.77,15.2a47.45,47.45,0,0,1-64.7,17.3L315.687,507.932ZM411.535,335.5H311.246V319.7H411.535Zm0-19.761H311.246V299.937H411.535Zm163.733-30.276H606.86v64.508H575.268V333.516H455.144v22.019a15.8,15.8,0,0,1-15.8,15.8H299.229a31.761,31.761,0,0,1-31.582-31.592V295.7a31.5,31.5,0,0,1,9.265-22.327c6.568-5.9,13.277-9.265,22.318-9.265H439.348a15.8,15.8,0,0,1,15.8,15.8v22.019H575.268ZM423.552,339.739V295.7H299.257l-.019,44.038Zm181.4-129.175a96.575,96.575,0,0,1-172.69,8.248H299.257a31.632,31.632,0,0,1-31.592-31.592v-31.2a31.632,31.632,0,0,1,31.592-31.592H432.266a96.586,96.586,0,0,1,173.315,9.685,15.74,15.74,0,0,1-8.388,20.61,15.548,15.548,0,0,1-6.111,1.232l-58.733.065v31.2h58.733a15.793,15.793,0,0,1,13.874,23.344Zm-52.444,15.32a65.659,65.659,0,0,0,8.882-7.072h-44.84a15.8,15.8,0,0,1-15.8-15.8V140.225a15.8,15.8,0,0,1,15.8-15.8h44.84a65.659,65.659,0,0,0-8.882-7.072,65.178,65.178,0,0,0-95.484,27.813,15.8,15.8,0,0,1-15,10.851H299.257v31.2H442.026a15.886,15.886,0,0,1,14.5,9.685,65.237,65.237,0,0,0,95.988,28.979ZM103.522,479.848,62.367,496.969,142.074,688.6l41.155-17.121q-39.858-95.81-79.707-191.63Zm27.44-16.16,109.712-53.564c22.6-10.608,47-17.652,70.871-17.652,21,0,41.631,5.365,60.412,18.324L475.25,470.434l81.507-30.444,133.3-49.785c11.523-4.3,23.988-5.318,35.1-2.342a43.741,43.741,0,0,1,27.188,20.75c2.9,5.057,6.83,11.952,9.638,16.822a47.234,47.234,0,0,1,3.844,34.316c-3.088,11.5-13.071,23.53-23.549,29.576L485.69,634.3a15.663,15.663,0,0,1-7.529,2.025L267.04,638.87l-53.116,24.277,4.488,10.795a15.775,15.775,0,0,1-8.518,20.61l-70.283,29.231A15.774,15.774,0,0,1,119,715.264L27.183,494.506A15.775,15.775,0,0,1,35.7,473.9l70.283-29.231a15.775,15.775,0,0,1,20.61,8.518l4.366,10.506Z" transform="translate(-25.978 -74.98)" fill="#557260"/>
</svg>
