<svg xmlns="http://www.w3.org/2000/svg" width="79.688" height="61.459" viewBox="0 0 79.688 61.459">
  <path id="Icon_awesome-cc-visa" data-name="Icon awesome-cc-visa" d="M65.037,29.591s1.051,5.1,1.287,6.173H61.7c.457-1.221,2.214-5.968,2.214-5.968-.028.041.457-1.248.733-2.044ZM79.688,8.835V57.124a6.615,6.615,0,0,1-6.641,6.585H6.641A6.615,6.615,0,0,1,0,57.124V8.835A6.615,6.615,0,0,1,6.641,2.25H73.047A6.615,6.615,0,0,1,79.688,8.835ZM21.1,43.3,29.841,22h-5.88L18.525,36.546,17.93,33.6l-1.937-9.8A2.312,2.312,0,0,0,13.475,22H4.524l-.1.425a22.059,22.059,0,0,1,5.838,2.346L15.218,43.3Zm13.06.027L37.644,22H32.083L28.61,43.323h5.548Zm19.355-6.969c.028-2.428-1.466-4.28-4.662-5.8-1.951-.974-3.14-1.633-3.14-2.634.028-.905,1.01-1.838,3.2-1.838a9.6,9.6,0,0,1,4.137.809l.5.233.761-4.609a13.918,13.918,0,0,0-4.98-.905c-5.492,0-9.352,2.908-9.38,7.051-.042,3.059,2.767,4.76,4.87,5.789,2.144,1.043,2.878,1.729,2.878,2.648-.028,1.427-1.743,2.085-3.334,2.085a11.16,11.16,0,0,1-5.216-1.139L38.4,37.7l-.775,4.788a17.1,17.1,0,0,0,6.2,1.139C49.666,43.639,53.471,40.772,53.512,36.354Zm19.535,6.969L68.564,22h-4.3a2.738,2.738,0,0,0-2.905,1.77L53.1,43.323h5.838s.955-2.634,1.162-3.2h7.139c.166.755.664,3.2.664,3.2Z" transform="translate(0 -2.25)" fill="#9fb38e"/>
</svg>