<svg xmlns="http://www.w3.org/2000/svg" width="34.583" height="34.583" viewBox="0 0 34.583 34.583">
  <path id="Icon_material-account-circle" data-name="Icon material-account-circle" d="M20.291,3A17.291,17.291,0,1,0,37.583,20.291,17.3,17.3,0,0,0,20.291,3Zm0,5.187A5.187,5.187,0,1,1,15.1,13.375,5.18,5.18,0,0,1,20.291,8.187Zm0,24.554A12.451,12.451,0,0,1,9.917,27.173c.052-3.441,6.917-5.326,10.375-5.326,3.441,0,10.323,1.885,10.375,5.326A12.451,12.451,0,0,1,20.291,32.741Z" transform="translate(-3 -3)" fill="#9fb38e"/>
</svg>
